{
.appVersion = "3133";
.formatVersion = 3;
DisplayStrings = (
" ",
"s r",
"Jj ",
"",
A,
"/_corner.leftSerif",
"/_corner.rightSerif",
"N "
);
date = "2022-10-13 19:52:38 +0000";
familyName = "New Font";
fontMaster = (
{
id = m01;
metricValues = (
{
over = 16;
pos = 800;
},
{
over = 16;
pos = 700;
},
{
over = 16;
pos = 435;
},
{
over = -16;
},
{
over = -16;
pos = -200;
}
);
name = Regular;
}
);
glyphs = (
{
color = 4;
glyphname = A;
lastChange = "2022-10-14 16:41:32 +0000";
layers = (
{
hints = (
{
name = _corner.leftSerif;
origin = (2,3);
type = Corner;
},
{
name = _corner.leftSerif;
origin = (0,3);
type = Corner;
},
{
name = _corner.rightSerif;
options = 1;
origin = (0,0);
type = Corner;
},
{
name = _corner.rightSerif;
options = 1;
origin = (2,0);
type = Corner;
}
);
layerId = m01;
shapes = (
{
closed = 1;
nodes = (
(107,0,l),
(354,705,l),
(313,705,l),
(66,0,l)
);
},
{
closed = 1;
nodes = (
(442,224,l),
(442,267,l),
(182,267,l),
(182,224,l)
);
},
{
closed = 1;
nodes = (
(592,0,l),
(354,705,l),
(313,597,l),
(502,0,l)
);
},
{
closed = 1;
nodes = (
(354,705,l),
(337,713,o),
(329,713,o),
(313,721,c),
(304,721,o),
(304,713,o),
(313,713,c),
(313,705,l)
);
}
);
width = 600;
}
);
unicode = 65;
},
{
color = 4;
glyphname = B;
lastChange = "2022-10-14 16:41:42 +0000";
layers = (
{
layerId = m01;
shapes = (
{
closed = 1;
nodes = (
(390,0,l),
(497,8,o),
(579,91,o),
(579,189,cs),
(579,272,o),
(530,338,o),
(448,362,c),
(497,396,o),
(538,453,o),
(538,519,cs),
(538,609,o),
(457,692,o),
(357,700,c),
(70,700,l),
(70,0,l)
);
},
{
closed = 1;
nodes = (
(176,41,o),
(168,58,o),
(168,115,cs),
(168,296,ls),
(168,338,o),
(168,338,o),
(201,338,cs),
(324,338,ls),
(406,338,o),
(468,271,o),
(481,205,cs),
(492,148,o),
(473,41,o),
(390,41,cs),
(251,41,ls)
);
},
{
closed = 1;
nodes = (
(168,370,o),
(168,370,o),
(168,412,cs),
(168,577,ls),
(168,642,o),
(176,660,o),
(251,660,cs),
(308,660,ls),
(406,660,o),
(448,601,o),
(448,527,cs),
(448,468,o),
(424,370,o),
(357,370,cs),
(308,370,l),
(201,370,ls)
);
},
{
pos = (70,0);
ref = SerifBottomLeft;
},
{
angle = 180;
pos = (70,700);
ref = SerifBottomRight;
}
);
width = 600;
}
);
unicode = 66;
},
{
color = 4;
glyphname = C;
lastChange = "2022-10-14 16:41:32 +0000";
layers = (
{
layerId = m01;
shapes = (
{
closed = 1;
nodes = (
(482,-15,o),
(553,93,o),
(566,130,c),
(541,140,l),
(518,93,o),
(444,21,o),
(336,21,cs),
(194,21,o),
(123,153,o),
(110,334,cs),
(100,512,o),
(169,678,o),
(312,678,cs),
(398,678,o),
(448,639,o),
(467,621,cs),
(488,602,o),
(505,561,o),
(505,523,c),
(518,523,l),
(518,523,o),
(493,693,o),
(505,703,c),
(482,703,l),
(482,653,o),
(445,678,o),
(445,678,cs),
(424,693,o),
(413,698,o),
(389,706,cs),
(374,711,o),
(350,716,o),
(336,716,cs),
(181,716,o),
(1,547,o),
(1,344,cs),
(1,140,o),
(146,-15,o),
(336,-15,cs)
);
}
);
width = 600;
}
);
unicode = 67;
},
{
color = 4;
glyphname = E;
lastChange = "2022-10-14 03:59:47 +0000";
layers = (
{
layerId = m01;
shapes = (
{
closed = 1;
nodes = (
(467,0,l),
(467,42,l),
(279,42,ls),
(208,42,o),
(195,63,o),
(195,121,cs),
(195,292,ls),
(195,332,o),
(195,332,o),
(235,332,cs),
(341,332,ls),
(431,332,o),
(438,298,o),
(440,248,c),
(460,248,l),
(456,298,o),
(455,307,o),
(455,332,cs),
(455,374,ls),
(455,399,o),
(456,409,o),
(460,457,c),
(440,457,l),
(438,409,o),
(431,374,o),
(341,374,cs),
(235,374,ls),
(195,374,o),
(195,374,o),
(195,415,cs),
(195,577,ls),
(195,636,o),
(208,657,o),
(279,657,cs),
(426,657,ls),
(517,657,o),
(525,612,o),
(526,548,c),
(546,548,l),
(542,549,o),
(541,623,o),
(541,657,cs),
(541,699,l),
(98,699,l),
(98,0,l)
);
},
{
pos = (467,0);
ref = SerifUpRight;
},
{
pos = (98,0);
ref = SerifBottomLeft;
},
{
angle = 180;
pos = (98,699);
ref = SerifBottomRight;
}
);
width = 576;
}
);
unicode = 69;
},
{
color = 4;
glyphname = H;
lastChange = "2022-10-14 16:37:32 +0000";
layers = (
{
layerId = m01;
shapes = (
{
closed = 1;
nodes = (
(193,0,l),
(193,301,l),
(193,344,o),
(193,344,o),
(229,344,cs),
(530,344,ls),
(566,344,o),
(566,344,o),
(566,301,cs),
(566,0,l),
(663,0,l),
(663,700,l),
(566,700,l),
(566,422,l),
(566,386,o),
(566,386,o),
(530,386,cs),
(229,386,ls),
(193,386,o),
(193,386,o),
(193,422,c),
(193,700,l),
(96,700,l),
(96,0,l)
);
},
{
pos = (96,0);
ref = SerifBottomLeft;
},
{
pos = (663,0);
ref = SerifBottomRight;
},
{
pos = (193,0);
ref = SerifBottomRight;
},
{
pos = (566,0);
ref = SerifBottomLeft;
},
{
angle = 180;
pos = (96,700);
ref = SerifBottomRight;
},
{
angle = 180;
pos = (566,700);
ref = SerifBottomRight;
},
{
angle = 180;
pos = (193,700);
ref = SerifBottomLeft;
},
{
angle = 180;
pos = (663,700);
ref = SerifBottomLeft;
}
);
width = 759;
}
);
unicode = 72;
},
{
color = 4;
glyphname = J;
lastChange = "2022-10-14 03:59:43 +0000";
layers = (
{
layerId = m01;
shapes = (
{
closed = 1;
nodes = (
(68,-92,o),
(66,-93,o),
(11,-75,c),
(0,-97,l),
(2,-95,o),
(38,-126,o),
(89,-126,c),
(248,-126,o),
(265,30,o),
(265,99,c),
(265,105,l),
(265,138,l),
(265,700,l),
(183,700,l),
(183,105,l),
(183,-30,o),
(154,-91,o),
(89,-92,c)
);
},
{
angle = 180;
pos = (265,700);
ref = SerifBottomLeft;
},
{
angle = 180;
pos = (183,700);
ref = SerifBottomRight;
}
);
width = 361;
}
);
unicode = 74;
},
{
color = 4;
glyphname = N;
lastChange = "2022-10-14 16:41:34 +0000";
layers = (
{
hints = (
{
name = _corner.rightSerif;
options = 1;
origin = (0,6);
scale = (0.68,1);
type = Corner;
}
);
layerId = m01;
shapes = (
{
closed = 1;
nodes = (
(581,0,l),
(622,0,l),
(622,700,l),
(581,700,l),
(581,157,l),
(186,700,l),
(71,700,l),
(96,666,l),
(96,0,l),
(137,0,l),
(137,610,l)
);
},
{
pos = (96,0);
ref = SerifBottomLeft;
},
{
pos = (137,0);
ref = SerifBottomRight;
},
{
angle = 180;
pos = (622,700);
ref = SerifBottomLeft;
},
{
angle = 180;
pos = (581,700);
ref = SerifBottomRight;
}
);
width = 718;
}
);
unicode = 78;
},
{
color = 4;
glyphname = O;
lastChange = "2022-10-14 03:59:47 +0000";
layers = (
{
layerId = m01;
shapes = (
{
attr = {
fill = 1;
};
closed = 1;
nodes = (
(519,-16,o),
(663,153,o),
(663,356,c),
(663,562,o),
(519,716,o),
(339,716,cs),
(159,716,o),
(15,548,o),
(15,356,c),
(15,139,o),
(159,-16,o),
(339,-16,cs)
);
},
{
attr = {
fill = 1;
};
closed = 1;
nodes = (
(218,10,o),
(133,153,o),
(122,345,cs),
(111,525,o),
(184,667,o),
(314,679,cs),
(460,691,o),
(545,548,o),
(556,367,cs),
(567,189,o),
(494,34,o),
(364,23,cs)
);
}
);
width = 678;
}
);
unicode = 79;
},
{
color = 4;
glyphname = S;
lastChange = "2022-10-14 16:46:13 +0000";
layers = (
{
layerId = m01;
shapes = (
{
closed = 1;
nodes = (
(332,-14,o),
(378,1,o),
(417,21,cs),
(485,54,o),
(535,101,o),
(535,175,cs),
(535,261,o),
(506,309,o),
(449,345,c),
(422,358,o),
(304,417,o),
(254,443,c),
(209,464,o),
(178,487,o),
(168,506,cs),
(129,577,o),
(176,681,o),
(280,681,cs),
(365,681,o),
(402,653,o),
(412,640,c),
(412,678,l),
(406,683,o),
(379,699,o),
(357,706,cs),
(340,712,o),
(310,718,o),
(269,718,cs),
(166,718,o),
(79,619,o),
(79,513,cs),
(79,470,o),
(90,440,o),
(110,416,cs),
(134,391,o),
(166,372,o),
(194,359,c),
(358,283,l),
(422,251,o),
(441,224,o),
(443,171,cs),
(445,119,o),
(418,85,o),
(391,63,cs),
(365,41,o),
(324,23,o),
(269,23,cs),
(204,23,o),
(150,48,o),
(121,73,c),
(121,35,l),
(128,29,o),
(183,-14,o),
(269,-14,cs)
);
},
{
angle = 180;
pos = (412,678);
ref = SerifUpLeft;
},
{
pos = (121,35);
ref = SerifUpLeft;
}
);
width = 600;
}
);
unicode = 83;
},
{
color = 0;
export = 0;
glyphname = F;
lastChange = "2022-10-14 04:28:21 +0000";
layers = (
{
layerId = m01;
shapes = (
{
closed = 1;
nodes = (
(199,0,l),
(199,296,ls),
(199,336,o),
(199,336,o),
(239,336,cs),
(349,336,ls),
(439,336,o),
(457,302,o),
(459,253,c),
(469,253,ls),
(472,253,o),
(464,310,o),
(464,336,cs),
(464,374,ls),
(464,399,o),
(472,457,o),
(469,457,cs),
(459,457,l),
(457,408,o),
(439,374,o),
(349,374,cs),
(239,374,ls),
(199,374,o),
(199,374,o),
(199,415,cs),
(199,583,ls),
(199,641,o),
(212,658,o),
(284,658,cs),
(435,658,l),
(435,700,l),
(105,700,l),
(105,103,l),
(105,0,l)
);
},
{
pos = (435,700);
ref = SerifDownEF;
}
);
width = 600;
}
);
unicode = 70;
},
{
color = 7;
export = 0;
glyphname = R;
lastChange = "2022-10-14 04:40:12 +0000";
layers = (
{
layerId = m01;
shapes = (
{
closed = 1;
nodes = (
(-55,0,o),
(6,0,o),
(31,0,cs),
(126,0,ls),
(152,0,o),
(199,0,o),
(199,-11,cs),
(199,14,l),
(162,14,o),
(126,25,o),
(126,108,cs),
(126,326,ls),
(126,337,o),
(126,337,o),
(162,337,cs),
(199,337,ls),
(296,337,o),
(427,25,o),
(439,14,cs),
(453,0,o),
(488,0,o),
(511,0,cs),
(572,0,o),
(597,-11,o),
(597,-11,c),
(597,14,l),
(583,14,l),
(511,25,o),
(439,289,o),
(343,351,c),
(332,351,l),
(453,362,o),
(500,436,o),
(500,518,cs),
(500,649,o),
(416,700,o),
(318,700,cs),
(31,700,ls),
(6,700,o),
(-55,711,o),
(-55,711,c),
(-55,686,l),
(-4,686,o),
(17,686,o),
(31,601,c),
(31,108,l),
(17,25,o),
(-4,14,o),
(-55,14,c),
(-55,-11,ls)
);
},
{
closed = 1;
nodes = (
(126,373,o),
(126,373,o),
(126,399,c),
(115,591,l),
(126,649,o),
(141,664,o),
(210,664,cs),
(271,664,ls),
(354,664,o),
(401,612,o),
(416,543,c),
(416,482,o),
(380,410,o),
(308,384,cs),
(271,373,o),
(234,373,o),
(234,373,c),
(162,373,ls)
);
}
);
width = 600;
}
);
tags = (
"Clean up"
);
unicode = 82;
},
{
color = 3;
glyphname = b;
lastChange = "2022-10-14 16:17:10 +0000";
layers = (
{
layerId = m01;
shapes = (
{
closed = 1;
nodes = (
(400,155,o),
(392,114,o),
(378,84,cs),
(354,34,o),
(324,8,o),
(279,9,cs),
(239,10,o),
(199,38,o),
(186,73,c),
(189,358,l),
(189,409,o),
(247,424,o),
(300,420,cs),
(358,414,o),
(389,371,o),
(400,305,cs),
(404,279,o),
(408,232,o),
(405,200,cs)
);
},
{
closed = 1;
nodes = (
(10,0,l),
(16,2,o),
(24,3,o),
(33,2,cs),
(76,-3,o),
(156,-18,o),
(175,-20,c),
(175,-20,o),
(185,2,o),
(185,22,c),
(198,5,o),
(236,-16,o),
(281,-16,cs),
(340,-16,o),
(398,1,o),
(439,54,cs),
(469,92,o),
(488,142,o),
(491,201,cs),
(492,231,o),
(483,282,o),
(473,309,cs),
(442,391,o),
(368,452,o),
(281,452,cs),
(248,452,o),
(217,444,o),
(189,430,c),
(192,687,ls),
(192,723,o),
(192,731,o),
(248,731,c),
(248,748,l),
(180,748,o),
(185,748,o),
(124,761,c),
(118,761,o),
(114,761,o),
(114,755,c),
(113,83,l),
(113,23,l),
(10,23,l)
);
}
);
width = 501;
}
);
unicode = 98;
},
{
color = 3;
glyphname = c;
lastChange = "2022-10-14 16:17:06 +0000";
layers = (
{
layerId = m01;
shapes = (
{
closed = 1;
nodes = (
(155,-17,o),
(107,-1,o),
(71,34,cs),
(51,53,o),
(31,78,o),
(20,108,cs),
(8,141,o),
(0,174,o),
(0,212,cs),
(0,335,o),
(87,452,o),
(212,452,cs),
(235,452,o),
(263,438,o),
(271,433,cs),
(281,426,o),
(291,414,o),
(291,446,c),
(314,446,l),
(302,436,o),
(324,308,o),
(324,308,c),
(307,308,l),
(307,346,o),
(295,370,o),
(276,388,cs),
(255,408,o),
(232,420,o),
(200,420,cs),
(170,420,o),
(150,410,o),
(125,385,cs),
(98,358,o),
(86,298,o),
(85,243,c),
(85,243,o),
(85,214,o),
(87,186,cs),
(89,147,o),
(96,116,o),
(108,92,cs),
(121,68,o),
(132,53,o),
(149,41,cs),
(171,26,o),
(207,18,o),
(233,21,cs),
(290,27,o),
(318,58,o),
(338,76,c),
(350,58,l),
(322,28,o),
(280,-15,o),
(212,-16,cs)
);
}
);
width = 350;
}
);
unicode = 99;
},
{
color = 3;
glyphname = d;
lastChange = "2022-10-14 16:29:33 +0000";
layers = (
{
layerId = m01;
shapes = (
{
closed = 1;
nodes = (
(255,-16,o),
(293,4,o),
(306,21,c),
(306,1,o),
(316,-21,o),
(316,-21,c),
(335,-19,o),
(415,-4,o),
(458,1,cs),
(467,2,o),
(475,1,o),
(481,-1,c),
(481,22,l),
(424,22,o),
(386,23,o),
(378,83,c),
(377,755,l),
(377,761,o),
(373,761,o),
(367,761,c),
(306,748,o),
(311,748,o),
(243,748,c),
(243,731,l),
(299,731,o),
(299,723,o),
(299,687,cs),
(302,430,l),
(274,444,o),
(243,452,o),
(210,452,cs),
(123,452,o),
(49,391,o),
(18,309,cs),
(8,282,o),
(-1,231,o),
(0,201,cs),
(3,142,o),
(22,92,o),
(52,54,cs),
(93,1,o),
(151,-16,o),
(210,-16,cs)
);
},
{
closed = 1;
nodes = (
(83,232,o),
(87,279,o),
(91,305,cs),
(102,371,o),
(133,414,o),
(191,420,cs),
(244,424,o),
(302,409,o),
(302,358,c),
(305,73,l),
(292,38,o),
(252,10,o),
(212,9,cs),
(167,8,o),
(137,34,o),
(113,84,cs),
(99,114,o),
(91,155,o),
(86,200,cs)
);
}
);
width = 481;
}
);
unicode = 100;
},
{
color = 3;
glyphname = e;
lastChange = "2022-10-14 16:16:49 +0000";
layers = (
{
layerId = m01;
shapes = (
{
closed = 1;
nodes = (
(273,419,o),
(309,370,o),
(310,275,c),
(107,275,l),
(105,312,o),
(121,367,o),
(137,385,cs),
(162,412,o),
(192,421,o),
(224,420,cs)
);
},
{
closed = 1;
nodes = (
(183,21,o),
(113,61,o),
(107,186,cs),
(105,214,o),
(105,243,o),
(105,243,c),
(316,243,l),
(401,243,l),
(398,333,o),
(331,452,o),
(232,452,cs),
(110,452,o),
(23,341,o),
(20,222,cs),
(19,180,o),
(24,141,o),
(40,108,cs),
(52,81,o),
(71,53,o),
(91,34,cs),
(127,-1,o),
(178,-16,o),
(232,-16,cs),
(312,-16,o),
(353,33,o),
(381,63,c),
(369,81,l),
(349,63,o),
(310,21,o),
(253,21,cs)
);
}
);
width = 381;
}
);
unicode = 101;
},
{
color = 3;
glyphname = h;
lastChange = "2022-10-14 16:37:21 +0000";
layers = (
{
layerId = m01;
shapes = (
{
closed = 1;
nodes = (
(468,0,l),
(468,324,ls),
(468,381,o),
(451,403,o),
(417,427,cs),
(400,439,o),
(362,450,o),
(320,449,cs),
(263,447,o),
(212,423,o),
(174,381,c),
(174,755,ls),
(174,761,o),
(170,761,o),
(164,761,c),
(103,748,o),
(108,748,o),
(40,748,c),
(40,731,l),
(96,731,o),
(96,723,o),
(96,687,cs),
(96,0,l),
(174,0,l),
(174,337,l),
(200,364,o),
(245,402,o),
(301,402,cs),
(355,402,o),
(390,381,o),
(390,338,cs),
(390,0,l)
);
},
{
pos = (96,0);
ref = LowerSerifBottomLeft;
},
{
pos = (174,0);
ref = LowerSerifBottomRight;
},
{
pos = (391,0);
ref = LowerSerifBottomLeft;
},
{
pos = (469,0);
ref = LowerSerifBottomRight;
},
{
closed = 0;
nodes = (
(689,360,l)
);
},
{
closed = 0;
nodes = (
(740,331,l)
);
}
);
width = 600;
}
);
unicode = 104;
},
{
color = 3;
glyphname = i;
lastChange = "2022-10-14 16:30:49 +0000";
layers = (
{
layerId = m01;
shapes = (
{
closed = 1;
nodes = (
(154,0,l),
(154,455,ls),
(154,461,o),
(150,461,o),
(144,461,c),
(83,448,o),
(88,448,o),
(20,448,c),
(20,431,l),
(76,431,o),
(76,423,o),
(76,387,cs),
(76,0,l)
);
},
{
pos = (154,0);
ref = LowerSerifBottomRight;
},
{
pos = (76,0);
ref = LowerSerifBottomLeft;
},
{
closed = 1;
nodes = (
(71,647,o),
(51,629,o),
(51,607,cs),
(51,585,o),
(71,567,o),
(96,567,cs),
(122,567,o),
(142,585,o),
(142,607,cs),
(142,629,o),
(122,647,o),
(96,647,cs)
);
}
);
width = 230;
}
);
unicode = 105;
},
{
color = 3;
glyphname = j;
lastChange = "2022-10-14 16:37:17 +0000";
layers = (
{
layerId = m01;
shapes = (
{
closed = 1;
nodes = (
(248,-126,o),
(261,30,o),
(261,99,cs),
(261,455,ls),
(261,461,o),
(257,461,o),
(251,461,c),
(190,448,o),
(195,448,o),
(127,448,c),
(127,431,l),
(183,431,o),
(183,423,o),
(183,387,cs),
(183,105,ls),
(183,-30,o),
(154,-91,o),
(89,-92,cs),
(68,-92,o),
(66,-93,o),
(11,-75,c),
(0,-97,l),
(2,-95,o),
(38,-126,o),
(89,-126,cs)
);
},
{
closed = 1;
nodes = (
(178,647,o),
(158,629,o),
(158,607,cs),
(158,585,o),
(178,567,o),
(203,567,cs),
(229,567,o),
(249,585,o),
(249,607,cs),
(249,629,o),
(229,647,o),
(203,647,cs)
);
}
);
width = 261;
}
);
unicode = 106;
},
{
color = 3;
glyphname = l;
lastChange = "2022-10-14 16:15:56 +0000";
layers = (
{
layerId = m01;
shapes = (
{
closed = 1;
nodes = (
(96,0,l),
(174,0,l),
(174,755,l),
(174,761,o),
(170,761,o),
(164,761,c),
(103,748,o),
(108,748,o),
(40,748,c),
(40,731,l),
(96,731,o),
(96,723,o),
(96,687,cs)
);
},
{
pos = (96,0);
ref = LowerSerifBottomLeft;
},
{
pos = (174,0);
ref = LowerSerifBottomRight;
}
);
width = 270;
}
);
unicode = 108;
},
{
color = 3;
glyphname = m;
lastChange = "2022-10-14 16:16:54 +0000";
layers = (
{
layerId = m01;
shapes = (
{
closed = 0;
nodes = (
(669,360,l)
);
},
{
closed = 0;
nodes = (
(720,331,l)
);
},
{
closed = 1;
nodes = (
(455,365,o),
(491,403,o),
(542,403,cs),
(593,403,o),
(626,382,o),
(626,339,cs),
(626,1,l),
(704,1,l),
(704,325,ls),
(704,382,o),
(687,404,o),
(653,428,cs),
(636,440,o),
(603,451,o),
(561,450,cs),
(504,448,o),
(463,410,o),
(425,368,c),
(418,396,o),
(402,410,o),
(378,427,cs),
(361,439,o),
(328,450,o),
(286,449,cs),
(229,447,o),
(192,423,o),
(154,381,c),
(154,445,ls),
(154,451,o),
(150,451,o),
(144,451,c),
(83,438,o),
(88,438,o),
(20,438,c),
(20,421,l),
(76,421,o),
(76,413,o),
(76,377,cs),
(76,0,l),
(154,0,l),
(154,337,l),
(180,364,o),
(216,402,o),
(267,402,cs),
(318,402,o),
(351,381,o),
(351,338,cs),
(351,0,l),
(429,0,l),
(429,324,ls),
(429,329,o),
(429,334,o),
(429,338,c)
);
},
{
pos = (76,0);
ref = LowerSerifBottomLeft;
},
{
pos = (154,0);
ref = LowerSerifBottomRight;
},
{
pos = (351,0);
ref = LowerSerifBottomLeft;
},
{
pos = (429,0);
ref = LowerSerifBottomRight;
},
{
pos = (626,1);
ref = LowerSerifBottomLeft;
},
{
pos = (704,1);
ref = LowerSerifBottomRight;
}
);
width = 780;
}
);
unicode = 109;
},
{
color = 3;
glyphname = n;
lastChange = "2022-10-14 16:50:24 +0000";
layers = (
{
layerId = m01;
shapes = (
{
closed = 1;
nodes = (
(459,0,l),
(459,324,ls),
(459,381,o),
(442,403,o),
(408,427,cs),
(391,439,o),
(358,450,o),
(316,449,cs),
(259,447,o),
(212,423,o),
(174,381,c),
(174,445,ls),
(174,451,o),
(170,451,o),
(164,451,c),
(103,438,o),
(108,438,o),
(40,438,c),
(40,421,l),
(96,421,o),
(96,413,o),
(96,377,cs),
(96,0,l),
(174,0,l),
(174,337,l),
(200,364,o),
(241,402,o),
(297,402,cs),
(351,402,o),
(381,381,o),
(381,338,cs),
(381,0,l)
);
},
{
pos = (96,0);
ref = LowerSerifBottomLeft;
},
{
pos = (174,0);
ref = LowerSerifBottomRight;
},
{
pos = (381,0);
ref = LowerSerifBottomLeft;
},
{
pos = (459,0);
ref = LowerSerifBottomRight;
}
);
width = 600;
}
);
unicode = 110;
changeCount = 1;
},
{
color = 3;
glyphname = o;
lastChange = "2022-10-14 16:37:19 +0000";
layers = (
{
layerId = m01;
shapes = (
{
attr = {
fill = "1";
};
closed = 1;
nodes = (
(323,-16,o),
(416,91,o),
(416,222,c),
(416,355,o),
(323,452,o),
(208,452,cs),
(93,452,o),
(0,345,o),
(0,222,c),
(0,82,o),
(93,-16,o),
(208,-16,cs)
);
},
{
attr = {
fill = "1";
};
closed = 1;
nodes = (
(135,7,o),
(92,91,o),
(86,216,cs),
(79,330,o),
(107,412,o),
(189,420,cs),
(283,428,o),
(324,345,o),
(330,229,cs),
(337,116,o),
(311,23,o),
(229,16,cs)
);
}
);
width = 416;
}
);
unicode = 111;
},
{
color = 3;
glyphname = p;
lastChange = "2022-10-14 16:16:47 +0000";
layers = (
{
layerId = m01;
shapes = (
{
closed = 1;
nodes = (
(174,-216,l),
(174,5,l),
(202,-9,o),
(230,-17,o),
(263,-17,cs),
(350,-17,o),
(428,30,o),
(460,115,cs),
(474,152,o),
(474,204,o),
(473,234,cs),
(470,293,o),
(451,343,o),
(421,381,cs),
(380,434,o),
(322,451,o),
(263,451,cs),
(218,451,o),
(184,425,o),
(174,415,c),
(174,419,o),
(174,449,o),
(174,455,cs),
(174,461,o),
(169,461,o),
(163,461,c),
(102,448,o),
(81,448,o),
(13,448,c),
(13,431,l),
(69,431,o),
(95,423,o),
(95,387,cs),
(96,-216,l)
);
},
{
closed = 1;
nodes = (
(390,203,o),
(386,156,o),
(382,130,cs),
(371,64,o),
(340,21,o),
(282,15,cs),
(229,11,o),
(171,26,o),
(171,77,c),
(168,362,l),
(181,397,o),
(221,425,o),
(261,426,cs),
(306,427,o),
(336,401,o),
(360,351,cs),
(374,321,o),
(382,280,o),
(387,235,cs)
);
},
{
pos = (96,-216);
ref = LowerSerifBottomLeft;
},
{
pos = (174,-216);
ref = LowerSerifBottomRight;
}
);
width = 473;
}
);
unicode = 112;
},
{
color = 3;
glyphname = q;
lastChange = "2022-10-14 14:46:44 +0000";
layers = (
{
layerId = m01;
shapes = (
{
closed = 1;
nodes = (
(378,435,o),
(378,443,o),
(434,443,c),
(434,460,l),
(366,460,o),
(377,460,o),
(316,473,c),
(310,473,o),
(306,473,o),
(306,467,cs),
(306,414,l),
(293,431,o),
(255,451,o),
(210,451,cs),
(151,451,o),
(93,434,o),
(52,381,cs),
(22,343,o),
(3,293,o),
(0,234,cs),
(-1,204,o),
(8,153,o),
(18,126,cs),
(49,44,o),
(123,-17,o),
(210,-17,cs),
(243,-17,o),
(274,-9,o),
(302,5,c),
(302,-217,l),
(377,-217,l),
(378,399,ls)
);
},
{
closed = 1;
nodes = (
(91,280,o),
(99,321,o),
(113,351,cs),
(137,401,o),
(167,427,o),
(212,426,cs),
(252,425,o),
(292,397,o),
(305,362,c),
(302,77,l),
(302,26,o),
(244,10,o),
(191,15,cs),
(133,21,o),
(102,64,o),
(91,130,cs),
(87,156,o),
(83,203,o),
(86,235,cs)
);
},
{
pos = (302,-217);
ref = LowerSerifBottomLeft;
},
{
pos = (377,-217);
ref = LowerSerifBottomRight;
}
);
width = 473;
}
);
unicode = 113;
},
{
color = 3;
glyphname = r;
lastChange = "2022-10-14 16:50:28 +0000";
layers = (
{
layerId = m01;
shapes = (
{
closed = 1;
nodes = (
(276,449,l),
(219,442,o),
(192,417,o),
(154,375,c),
(154,445,ls),
(154,451,o),
(150,451,o),
(144,451,c),
(83,438,o),
(88,438,o),
(20,438,c),
(20,421,l),
(76,421,o),
(76,413,o),
(76,377,cs),
(76,0,l),
(154,0,l),
(154,327,l),
(180,354,o),
(220,364,o),
(276,364,c)
);
},
{
pos = (76,0);
ref = LowerSerifBottomLeft;
},
{
pos = (154,0);
ref = LowerSerifBottomRight;
}
);
width = 276;
}
);
unicode = 114;
changeCount = 1;
},
{
color = 3;
glyphname = s;
lastChange = "2022-10-14 16:41:39 +0000";
layers = (
{
background = {
shapes = (
{
closed = 0;
nodes = (
(30,54,l),
(30,16,l)
);
},
{
closed = 1;
nodes = (
(22,21,o),
(-9,41,o),
(-11,1,c),
(-30,1,l),
(-21,4,o),
(-27,142,o),
(-37,141,c),
(-17,141,l),
(-10,104,o),
(2,91,o),
(8,83,cs),
(30,54,l),
(30,16,l)
);
}
);
};
layerId = m01;
shapes = (
{
closed = 1;
nodes = (
(204,393,o),
(168,423,o),
(114,416,cs),
(48,407,o),
(25,359,o),
(50,314,cs),
(56,302,o),
(69,287,o),
(97,274,cs),
(129,258,o),
(187,228,o),
(204,220,cs),
(222,210,o),
(244,195,o),
(255,175,cs),
(269,150,o),
(269,125,o),
(269,104,cs),
(269,65,o),
(242,22,o),
(206,1,cs),
(183,-13,o),
(147,-19,o),
(107,-16,cs),
(69,-13,o),
(32,5,o),
(18,12,cs),
(10,17,o),
(-3,23,o),
(-23,41,c),
(-23,58,o),
(-22,133,o),
(-32,134,c),
(-12,134,l),
(-5,96,o),
(-3,72,o),
(8,63,cs),
(19,52,o),
(59,20,o),
(107,18,cs),
(140,17,o),
(168,25,o),
(184,39,cs),
(201,53,o),
(205,68,o),
(203,101,cs),
(202,115,o),
(194,139,o),
(163,153,cs),
(59,201,ls),
(50,205,o),
(20,223,o),
(6,243,cs),
(-16,276,o),
(-14,305,o),
(-14,319,cs),
(-14,386,o),
(41,449,o),
(107,449,cs),
(122,449,o),
(143,450,o),
(163,446,cs),
(178,443,o),
(191,436,o),
(200,432,cs),
(236,414,o),
(235,409,o),
(249,400,c),
(249,383,o),
(252,303,o),
(262,302,c),
(242,302,l),
(235,340,o),
(228,368,o),
(218,378,cs)
);
}
);
width = 276;
}
);
unicode = 115;
},
{
color = 3;
glyphname = u;
lastChange = "2022-10-14 15:38:11 +0000";
layers = (
{
layerId = m01;
shapes = (
{
closed = 1;
nodes = (
(99,435,l),
(99,120,ls),
(99,63,o),
(118,32,o),
(160,8,cs),
(177,-2,o),
(200,-15,o),
(242,-14,cs),
(299,-12,o),
(346,12,o),
(384,54,c),
(384,6,ls),
(384,0,o),
(388,0,o),
(394,0,c),
(453,1,o),
(450,-3,o),
(518,-3,c),
(518,14,l),
(462,14,o),
(462,22,o),
(462,58,cs),
(462,435,l),
(384,435,l),
(384,98,l),
(358,71,o),
(317,33,o),
(261,33,cs),
(207,33,o),
(177,54,o),
(177,97,cs),
(177,435,l)
);
},
{
closed = 0;
nodes = (
(-131,75,l)
);
},
{
closed = 0;
nodes = (
(-182,104,l)
);
},
{
angle = 180;
pos = (462,435);
ref = LowerSerifBottomLeft;
},
{
angle = 180;
pos = (384,435);
ref = LowerSerifBottomRight;
},
{
angle = 180;
pos = (177,435);
ref = LowerSerifBottomLeft;
},
{
angle = 180;
pos = (99,435);
ref = LowerSerifBottomRight;
}
);
width = 600;
}
);
unicode = 117;
},
{
export = 0;
glyphname = _corner.leftSerif;
lastChange = "2022-10-14 16:27:35 +0000";
layers = (
{
layerId = m01;
shapes = (
{
closed = 0;
nodes = (
(0,108,l),
(0,23,o),
(-27,13,o),
(-91,13,c),
(-91,-10,l),
(-56,0,o),
(-12,0,o),
(13,0,c)
);
}
);
width = 200;
}
);
},
{
export = 0;
glyphname = _corner.rightSerif;
lastChange = "2022-10-14 16:35:59 +0000";
layers = (
{
layerId = m01;
shapes = (
{
closed = 0;
nodes = (
(-13,0,l),
(12,0,o),
(63,0,o),
(98,-10,c),
(98,13,l),
(34,13,o),
(0,23,o),
(0,108,c)
);
}
);
width = 200;
}
);
},
{
export = 0;
glyphname = LowerSerifBottomLeft;
lastChange = "2022-10-14 16:41:48 +0000";
layers = (
{
layerId = m01;
shapes = (
{
closed = 1;
nodes = (
(0,108,l),
(0,23,o),
(-12,14,o),
(-76,14,c),
(-76,-6,l),
(-39,2,o),
(-12,0,o),
(13,0,c)
);
}
);
width = 600;
}
);
},
{
export = 0;
glyphname = LowerSerifBottomRight;
lastChange = "2022-10-14 16:41:48 +0000";
layers = (
{
layerId = m01;
shapes = (
{
closed = 1;
nodes = (
(12,0,o),
(39,2,o),
(76,-6,c),
(76,14,l),
(12,14,o),
(0,23,o),
(0,108,c),
(-13,0,l)
);
}
);
width = 600;
}
);
},
{
export = 0;
glyphname = SerifBottomLeft;
lastChange = "2022-10-14 16:41:48 +0000";
layers = (
{
layerId = m01;
shapes = (
{
closed = 1;
nodes = (
(0,108,l),
(0,23,o),
(-32,14,o),
(-96,14,c),
(-96,-6,l),
(-59,2,o),
(-12,0,o),
(13,0,c)
);
}
);
width = 200;
}
);
},
{
export = 0;
glyphname = SerifBottomRight;
lastChange = "2022-10-14 16:41:48 +0000";
layers = (
{
layerId = m01;
shapes = (
{
closed = 1;
nodes = (
(12,0,o),
(59,2,o),
(96,-6,c),
(96,14,l),
(32,14,o),
(0,23,o),
(0,108,c),
(-13,0,l)
);
}
);
width = 200;
}
);
},
{
export = 0;
glyphname = SerifDownEF;
lastChange = "2022-10-14 16:41:48 +0000";
layers = (
{
layerId = m01;
shapes = (
{
closed = 1;
nodes = (
(115,0,l),
(115,-42,ls),
(115,-76,o),
(116,-150,o),
(120,-151,c),
(100,-151,l),
(99,-87,o),
(91,-42,o),
(0,-42,c),
(0,0,l)
);
}
);
width = 600;
}
);
},
{
export = 0;
glyphname = SerifUpLeft;
lastChange = "2022-10-14 16:41:48 +0000";
layers = (
{
layerId = m01;
shapes = (
{
closed = 1;
nodes = (
(-8,5,o),
(-39,25,o),
(-41,-15,c),
(-60,-15,l),
(-51,-12,o),
(-67,166,o),
(-77,165,c),
(-57,165,l),
(-57,123,o),
(-37,89,o),
(-22,67,c),
(0,38,l),
(0,0,l)
);
}
);
width = 200;
}
);
},
{
export = 0;
glyphname = SerifUpRight;
lastChange = "2022-10-14 16:41:48 +0000";
layers = (
{
layerId = m01;
shapes = (
{
closed = 1;
nodes = (
(97,0,l),
(89,17,o),
(105,141,o),
(109,191,c),
(105,191,o),
(89,192,o),
(89,192,c),
(69,75,o),
(72,42,o),
(0,42,c),
(0,0,l)
);
}
